/* XPM */
static char * icon_xpm[] = {
"48 48 694 2",
"  	c None",
". 	c #246D9D",
"+ 	c #2773A5",
"@ 	c #2874A6",
"# 	c #2975A8",
"$ 	c #2976A8",
"% 	c #2874A5",
"& 	c #236D9D",
"* 	c #1C567C",
"= 	c #2772A2",
"- 	c #2D7EB3",
"; 	c #3081B6",
"> 	c #3382B5",
", 	c #3685B9",
"' 	c #3988BC",
") 	c #3B8ABD",
"! 	c #3C8ABE",
"~ 	c #3988BB",
"{ 	c #3A87BA",
"] 	c #3E89B9",
"^ 	c #3F8BBC",
"/ 	c #3985B8",
"( 	c #3A82B1",
"_ 	c #5187AA",
": 	c #236A98",
"< 	c #267BB3",
"[ 	c #2D81B8",
"} 	c #3686BA",
"| 	c #408EC0",
"1 	c #4895C8",
"2 	c #4C9BCE",
"3 	c #4C9CD1",
"4 	c #4A9CD3",
"5 	c #489CD3",
"6 	c #499DD4",
"7 	c #4C9ED4",
"8 	c #4C9DD3",
"9 	c #509FD2",
"0 	c #5CA4D3",
"a 	c #69A8D2",
"b 	c #6DA8CF",
"c 	c #63A0C7",
"d 	c #4A90BD",
"e 	c #3985B6",
"f 	c #619FC8",
"g 	c #1B628A",
"h 	c #2479B0",
"i 	c #3986B8",
"j 	c #5F9DC7",
"k 	c #83B6D8",
"l 	c #9BC7E4",
"m 	c #A7D0EA",
"n 	c #A9D2EC",
"o 	c #A5D0EC",
"p 	c #9DCCEB",
"q 	c #8EC5E8",
"r 	c #7CBAE3",
"s 	c #66AFDF",
"t 	c #55A6DB",
"u 	c #50A3DA",
"v 	c #54A5DB",
"w 	c #5CA9DC",
"x 	c #69B0DE",
"y 	c #7CB9E0",
"z 	c #8CBFE1",
"A 	c #8FBFDE",
"B 	c #7EB2D2",
"C 	c #5392BC",
"D 	c #3881B1",
"E 	c #6DA5CA",
"F 	c #1E70A8",
"G 	c #3A85B7",
"H 	c #7AADCF",
"I 	c #B3D3E8",
"J 	c #CCE3F3",
"K 	c #CEE6F5",
"L 	c #C8E3F4",
"M 	c #C1DEF2",
"N 	c #BADBF0",
"O 	c #B4D8EF",
"P 	c #AFD5EE",
"Q 	c #AAD3ED",
"R 	c #A4CFEC",
"S 	c #9ACAE9",
"T 	c #88C0E5",
"U 	c #6DB2DF",
"V 	c #56A7DA",
"W 	c #52A4D9",
"X 	c #56A6DA",
"Y 	c #5FABDD",
"Z 	c #72B5E1",
"` 	c #8BC2E5",
" .	c #9DCAE6",
"..	c #9CC7E3",
"+.	c #80B2D3",
"@.	c #4487B3",
"#.	c #4B90BE",
"$.	c #267BB2",
"%.	c #619DC3",
"&.	c #B8D5E7",
"*.	c #D8EAF6",
"=.	c #D2E8F5",
"-.	c #C8E2F3",
";.	c #BBDBF0",
">.	c #B6D9EF",
",.	c #B1D6EE",
"'.	c #ACD3ED",
").	c #A6D0EC",
"!.	c #A0CDEB",
"~.	c #9BCAEA",
"{.	c #96C8E9",
"].	c #93C6E8",
"^.	c #8DC3E7",
"/.	c #61ADDD",
"(.	c #53A5DA",
"_.	c #54A5DA",
":.	c #57A7DB",
"<.	c #64AEDE",
"[.	c #7FBCE4",
"}.	c #9CCBE9",
"|.	c #A6CEE8",
"1.	c #95C1DE",
"2.	c #5D99C0",
"3.	c #3480B1",
"4.	c #2B7FB5",
"5.	c #83B1CF",
"6.	c #D4E7F2",
"7.	c #D7EAF6",
"8.	c #CBE4F4",
"9.	c #C7E1F3",
"0.	c #C2DFF2",
"a.	c #BDDDF1",
"b.	c #B8DAF0",
"c.	c #B2D7EF",
"d.	c #ADD4ED",
"e.	c #A8D1EC",
"f.	c #A2CEEB",
"g.	c #9DCBEA",
"h.	c #97C9E9",
"i.	c #91C5E7",
"j.	c #8BC2E6",
"k.	c #85BFE5",
"l.	c #82BDE4",
"m.	c #7BB9E2",
"n.	c #66AEDE",
"o.	c #56A7DB",
"p.	c #55A6DA",
"q.	c #5DAADC",
"r.	c #75B6E1",
"s.	c #97C8E9",
"t.	c #A9D1EB",
"u.	c #9CC7E2",
"v.	c #6AA2C8",
"w.	c #2F7CAE",
"x.	c #2C80B6",
"y.	c #90B9D4",
"z.	c #DCEBF6",
"A.	c #D3E7F5",
"B.	c #CCE4F4",
"C.	c #C3E0F2",
"D.	c #B3D7EF",
"E.	c #AED5EE",
"F.	c #A8D2EC",
"G.	c #A3CFEB",
"H.	c #9ECCEA",
"I.	c #99C9E9",
"J.	c #93C7E8",
"K.	c #88C0E6",
"L.	c #76B7E2",
"M.	c #71B5E0",
"N.	c #62ADDD",
"O.	c #5AA8DB",
"P.	c #6FB3E0",
"Q.	c #92C6E8",
"R.	c #AAD2EC",
"S.	c #68A1C7",
"T.	c #3684B7",
"U.	c #2579AF",
"V.	c #85B3D1",
"W.	c #D1E7F5",
"X.	c #CDE5F4",
"Y.	c #C3DFF2",
"Z.	c #BEDDF1",
"`.	c #B9DAF0",
" +	c #A9D2ED",
".+	c #9FCCEA",
"++	c #99CAE9",
"@+	c #94C7E8",
"#+	c #8FC4E7",
"$+	c #89C1E6",
"%+	c #84BEE4",
"&+	c #7EBBE3",
"*+	c #78B8E2",
"=+	c #6CB2E0",
"-+	c #66AFDE",
";+	c #5CAADC",
">+	c #58A7DB",
",+	c #56A6DB",
"'+	c #59A8DB",
")+	c #6DB3DF",
"!+	c #ABD2EC",
"~+	c #96C4E1",
"{+	c #5C9BC3",
"]+	c #2C7CB0",
"^+	c #1E71A9",
"/+	c #66A0C5",
"(+	c #D6E7F3",
"_+	c #D3E8F4",
":+	c #B4D7EF",
"<+	c #AAD2ED",
"[+	c #A5CFEC",
"}+	c #95C8E8",
"|+	c #90C5E7",
"1+	c #80BCE4",
"2+	c #7AB9E3",
"3+	c #74B6E1",
"4+	c #6FB4E0",
"5+	c #68B0DF",
"6+	c #5AA8DC",
"7+	c #6EB3E0",
"8+	c #A9D2EB",
"9+	c #87B9DB",
"0+	c #4B90BC",
"a+	c #2676AC",
"b+	c #3E87B8",
"c+	c #BDD8E9",
"d+	c #BEDCF1",
"e+	c #A5D0EB",
"f+	c #A0CDEA",
"g+	c #9BCBEA",
"h+	c #91C5E8",
"i+	c #8CC3E7",
"j+	c #87C0E5",
"k+	c #70B5E1",
"l+	c #6BB2E0",
"m+	c #5BA9DC",
"n+	c #57A6DB",
"o+	c #5AA9DB",
"p+	c #9DCCEA",
"q+	c #A2CDE9",
"r+	c #6DA8D0",
"s+	c #3886B5",
"t+	c #247BB4",
"u+	c #83B2D1",
"v+	c #DAEBF6",
"w+	c #C4E0F2",
"x+	c #A1CEEB",
"y+	c #8DC3E6",
"z+	c #88C1E6",
"A+	c #83BEE4",
"B+	c #79B8E2",
"C+	c #73B5E1",
"D+	c #6DB3E0",
"E+	c #67AFDE",
"F+	c #5EABDD",
"G+	c #8BBFE1",
"H+	c #4D93BF",
"I+	c #2C7FB6",
"J+	c #216794",
"K+	c #3E89BA",
"L+	c #BCD8EA",
"M+	c #C7E2F3",
"N+	c #ABD2ED",
"O+	c #9CCBEA",
"P+	c #7ABAE3",
"Q+	c #75B7E1",
"R+	c #69B1DF",
"S+	c #61ACDD",
"T+	c #60ACDD",
"U+	c #64AEDD",
"V+	c #8CC2E6",
"W+	c #67A7D1",
"X+	c #3684B6",
"Y+	c #206997",
"Z+	c #257AB2",
"`+	c #6AA4CA",
" @	c #D0E6F4",
".@	c #98C9E9",
"+@	c #92C5E8",
"@@	c #D8EBF7",
"#@	c #9FCDEA",
"$@	c #7DBBE3",
"%@	c #77B8E2",
"&@	c #72B5E0",
"*@	c #6CB2DF",
"=@	c #65AEDE",
"-@	c #63ADDE",
";@	c #5AA9DC",
">@	c #7AB6DE",
",@	c #438DBE",
"'@	c #2C7FB4",
")@	c #2D82B8",
"!@	c #90BEDB",
"~@	c #CFE6F5",
"{@	c #C1DFF2",
"]@	c #ABD3ED",
"^@	c #A7D1EC",
"/@	c #A2CFEB",
"(@	c #95C8E9",
"_@	c #8EC4E7",
":@	c #FCFEFE",
"<@	c #71B4E1",
"[@	c #69B0DF",
"}@	c #63ADDD",
"|@	c #62ADDE",
"1@	c #5FABDC",
"2@	c #5EAADD",
"3@	c #59A9DB",
"4@	c #81BDE3",
"5@	c #5099CA",
"6@	c #3284B9",
"7@	c #246D9C",
"8@	c #3A89BD",
"9@	c #A8CFE7",
"0@	c #C8E2F4",
"a@	c #BCDCF0",
"b@	c #B0D6EE",
"c@	c #F5FAFD",
"d@	c #6BB1E0",
"e@	c #60ABDD",
"f@	c #5EAADC",
"g@	c #67AFDF",
"h@	c #51A4DA",
"i@	c #4FA3D9",
"j@	c #4DA2D9",
"k@	c #52A4DA",
"l@	c #58A8DB",
"m@	c #6BB2DF",
"n@	c #7BBAE3",
"o@	c #5AA3D3",
"p@	c #3887BB",
"q@	c #256E9D",
"r@	c #2A7CB2",
"s@	c #4892C2",
"t@	c #B3D6ED",
"u@	c #C0DEF2",
"v@	c #B7D9EF",
"w@	c #C6E1F3",
"x@	c #C8E3F3",
"y@	c #C5E1F3",
"z@	c #F4F9FD",
"A@	c #AED4ED",
"B@	c #B9DBF1",
"C@	c #96C8E8",
"D@	c #5EABDC",
"E@	c #5CA7D9",
"F@	c #3E8CBF",
"G@	c #2D7DB2",
"H@	c #2E80B6",
"I@	c #519ACA",
"J@	c #E3F0F9",
"K@	c #FFFFFF",
"L@	c #ECF5FB",
"M@	c #D4E9F6",
"N@	c #D2E8F6",
"O@	c #CDE5F5",
"P@	c #DBECF7",
"Q@	c #F1F8FC",
"R@	c #FBFDFE",
"S@	c #D8EAF7",
"T@	c #C0DEF1",
"U@	c #F9FCFE",
"V@	c #DCEDF7",
"W@	c #D6E9F6",
"X@	c #DFEEF8",
"Y@	c #BCDCF1",
"Z@	c #BDDCF1",
"`@	c #4EA2D9",
" #	c #4292C6",
".#	c #3182B7",
"+#	c #236C9B",
"@#	c #3181B5",
"##	c #56A0D0",
"$#	c #B1D6EF",
"%#	c #B3D7EE",
"&#	c #F6FAFD",
"*#	c #8AC2E6",
"=#	c #78B9E2",
"-#	c #F8FBFD",
";#	c #CEE5F4",
">#	c #CBE3F4",
",#	c #4AA0D8",
"'#	c #B2D6EE",
")#	c #EEF6FB",
"!#	c #55A5DA",
"~#	c #53A4DA",
"{#	c #4797CC",
"]#	c #3482B6",
"^#	c #3484B8",
"/#	c #55A1D3",
"(#	c #E1EFF8",
"_#	c #E6F2FA",
":#	c #8FC5E7",
"<#	c #7DBBE4",
"[#	c #F2F8FC",
"}#	c #F7FBFD",
"|#	c #67B0DF",
"1#	c #FAFCFE",
"2#	c #D0E6F5",
"3#	c #D3E8F6",
"4#	c #5CA9DD",
"5#	c #6AB1DF",
"6#	c #64ADDE",
"7#	c #83BEE5",
"8#	c #52A5DB",
"9#	c #4A9BD1",
"0#	c #3785B9",
"a#	c #50A0D4",
"b#	c #8CC3E6",
"c#	c #82BEE4",
"d#	c #79B8E3",
"e#	c #80BDE4",
"f#	c #74B6E2",
"g#	c #D5E9F6",
"h#	c #68B0DE",
"i#	c #62ACDD",
"j#	c #89C2E6",
"k#	c #53A5DB",
"l#	c #4B9ED3",
"m#	c #A4D0EC",
"n#	c #DDEDF8",
"o#	c #81BDE4",
"p#	c #70B3E1",
"q#	c #F3F9FC",
"r#	c #86C0E5",
"s#	c #F0F7FC",
"t#	c #55A5DB",
"u#	c #54A6DA",
"v#	c #4C9FD4",
"w#	c #3A8ABD",
"x#	c #3C8BBE",
"y#	c #8BC3E6",
"z#	c #FEFFFF",
"A#	c #79B9E2",
"B#	c #76B8E2",
"C#	c #D4E8F6",
"D#	c #EAF4FB",
"E#	c #70B4E1",
"F#	c #6AB1E0",
"G#	c #FCFDFE",
"H#	c #C9E3F4",
"I#	c #FAFDFE",
"J#	c #87C0E6",
"K#	c #61ACDE",
"L#	c #D6EAF6",
"M#	c #DFEFF8",
"N#	c #4D9FD5",
"O#	c #3B8ABE",
"P#	c #4A9ED4",
"Q#	c #EAF4FA",
"R#	c #E4F1F9",
"S#	c #E2F0F9",
"T#	c #E1F0F9",
"U#	c #6DB2E0",
"V#	c #F7FBFE",
"W#	c #B0D5EE",
"X#	c #E8F3FA",
"Y#	c #DDEDF7",
"Z#	c #DAECF7",
"`#	c #EBF5FB",
" $	c #E7F2FA",
".$	c #54A6DB",
"+$	c #4E9FD5",
"@$	c #2875A7",
"#$	c #3A89BC",
"$$	c #4C9ED3",
"%$	c #D9EBF7",
"&$	c #CDE4F4",
"*$	c #7AB9E2",
"=$	c #89C1E5",
"-$	c #75B7E2",
";$	c #75B6E2",
">$	c #73B6E1",
",$	c #DCEDF8",
"'$	c #88C1E5",
")$	c #57A7DA",
"!$	c #59A8DC",
"~$	c #50A0D5",
"{$	c #2772A4",
"]$	c #3786BA",
"^$	c #4A9CD1",
"/$	c #77B7E2",
"($	c #DBECF8",
"_$	c #D3E8F5",
":$	c #71B5E1",
"<$	c #6BB1DF",
"[$	c #5FACDE",
"}$	c #519FD3",
"|$	c #3886BA",
"1$	c #2572A4",
"2$	c #3482B5",
"3$	c #4899CE",
"4$	c #70B4E0",
"5$	c #7BBAE2",
"6$	c #86BFE5",
"7$	c #8EC3E7",
"8$	c #6FB4E1",
"9$	c #59A7DB",
"0$	c #5DAADD",
"a$	c #4F9DD0",
"b$	c #3583B5",
"c$	c #1D5D87",
"d$	c #3281B5",
"e$	c #4896C9",
"f$	c #76B7E1",
"g$	c #8AC1E6",
"h$	c #9ACAEA",
"i$	c #84BFE5",
"j$	c #4C99CA",
"k$	c #3282B5",
"l$	c #2E7FB4",
"m$	c #4792C4",
"n$	c #67AEDC",
"o$	c #A3CEEC",
"p$	c #79B9E3",
"q$	c #92C6E7",
"r$	c #63AEDE",
"s$	c #91C6E8",
"t$	c #A4D0EB",
"u$	c #77B8E1",
"v$	c #7CBBE3",
"w$	c #69AFDD",
"x$	c #4692C4",
"y$	c #2876A8",
"z$	c #428DBE",
"A$	c #6DAFDA",
"B$	c #9FCDEB",
"C$	c #62ACDE",
"D$	c #67B0DE",
"E$	c #7FBBE3",
"F$	c #B2D6EF",
"G$	c #B5D8EF",
"H$	c #ADD4EE",
"I$	c #C9E2F3",
"J$	c #85BFE4",
"K$	c #82BEE5",
"L$	c #65AAD8",
"M$	c #3E8BBD",
"N$	c #1E5F89",
"O$	c #3A88BB",
"P$	c #69A9D2",
"Q$	c #99CAEA",
"R$	c #5BA1CF",
"S$	c #3787BA",
"T$	c #1F5F8A",
"U$	c #3183B8",
"V$	c #5B9DC7",
"W$	c #88BFE3",
"X$	c #50A3D9",
"Y$	c #52A5DA",
"Z$	c #6EB4E0",
"`$	c #7BB9E3",
" %	c #7EB9E0",
".%	c #4E95C3",
"+%	c #3082B8",
"@%	c #256E9E",
"#%	c #4990BE",
"$%	c #7FB6DA",
"%%	c #80BCE3",
"&%	c #95C7E8",
"*%	c #98C8E9",
"=%	c #70AED6",
"-%	c #418BBB",
";%	c #256F9E",
">%	c #3787BB",
",%	c #68A4CB",
"'%	c #90C3E4",
")%	c #82BDE5",
"!%	c #6EB3DF",
"~%	c #90C2E4",
"{%	c #5D9DC8",
"]%	c #3383B8",
"^%	c #236A99",
"/%	c #4B91BE",
"(%	c #80B6D9",
"_%	c #91C5E6",
":%	c #5DAADB",
"<%	c #A3CEEA",
"[%	c #7CB3D7",
"}%	c #448CBA",
"|%	c #2B71A0",
"1%	c #3583B6",
"2%	c #5D9AC2",
"3%	c #8BBEDF",
"4%	c #70B5E0",
"5%	c #ABD3EC",
"6%	c #92C2E1",
"7%	c #5B99C1",
"8%	c #3582B5",
"9%	c #3C89BC",
"0%	c #6DA6CA",
"a%	c #8CBFE0",
"b%	c #9DC9E5",
"c%	c #72A9CD",
"d%	c #3783B5",
"e%	c #438DBD",
"f%	c #70A8CD",
"g%	c #89BDDF",
"h%	c #5BA8DC",
"i%	c #7EBCE3",
"j%	c #9EC9E5",
"k%	c #79AED0",
"l%	c #448CBC",
"m%	c #24587A",
"n%	c #6CA5CB",
"o%	c #82B8DC",
"p%	c #80BCE2",
"q%	c #8EC4E6",
"r%	c #A8D1ED",
"s%	c #98C4E2",
"t%	c #74AACE",
"u%	c #4B93C2",
"v%	c #2D6081",
"w%	c #20506E",
"x%	c #438EBF",
"y%	c #62A0C8",
"z%	c #78B1D5",
"A%	c #7BB8DF",
"B%	c #A0CCE8",
"C%	c #8BBCDB",
"D%	c #68A4CA",
"E%	c #458FBF",
"F%	c #255371",
"G%	c #3781B1",
"H%	c #5298C5",
"I%	c #66A4CC",
"J%	c #70AFD8",
"K%	c #6EB1DE",
"L%	c #84BEE5",
"M%	c #9CCAE8",
"N%	c #92C1E0",
"O%	c #78AED1",
"P%	c #599CC7",
"Q%	c #3A83B2",
"R%	c #27658E",
"S%	c #3F8CBE",
"T%	c #5197C4",
"U%	c #5D9FCA",
"V%	c #62A6D3",
"W%	c #60A9D9",
"X%	c #58A8DC",
"Y%	c #7CB9E2",
"Z%	c #8BC0E3",
"`%	c #8ABDDE",
" &	c #7AB0D3",
".&	c #61A0CA",
"+&	c #4791C1",
"@&	c #2A6890",
"#&	c #12374F",
"$&	c #2A6F9D",
"%&	c #4490C1",
"&&	c #4A94C3",
"*&	c #4D98C8",
"=&	c #4D9BCE",
"-&	c #4C9DD1",
";&	c #4EA1D7",
">&	c #4FA2D8",
",&	c #50A2D8",
"'&	c #4FA2D7",
")&	c #53A2D6",
"!&	c #5DA6D6",
"~&	c #6BACD6",
"{&	c #73ADD4",
"]&	c #3174A0",
"^&	c #163A51",
"/&	c #11354D",
"(&	c #21628C",
"_&	c #2E7DB0",
":&	c #3587BC",
"<&	c #3989BE",
"[&	c #3A8BBE",
"}&	c #3C8CC0",
"|&	c #3E8EC2",
"1&	c #408FC2",
"2&	c #408FC3",
"3&	c #4390C3",
"4&	c #4993C4",
"5&	c #5097C6",
"6&	c #549AC8",
"7&	c #4E96C5",
"8&	c #4088B7",
"9&	c #2C6991",
"0&	c #143E59",
"a&	c #1D5980",
"b&	c #256C9B",
"c&	c #2A77A9",
"d&	c #2D7DB1",
"e&	c #2F80B6",
"f&	c #3082B7",
"g&	c #327FB2",
"h&	c #347DAD",
"i&	c #3376A1",
"j&	c #2B6388",
"k&	c #1E4660",
"                                      . + @ # $ # % + &                                         ",
"                              * = - ; > , ' ) ! ) ~ { ] ^ / ( _                                 ",
"                          : < [ } | 1 2 3 4 5 6 7 8 9 0 a b c d e f                             ",
"                      g h i j k l m n o p q r s t u v w x y z A B C D E                         ",
"                    F G H I J K L M N O P Q R S T U V W X Y Z `  ...+.@.#.                      ",
"                  $.%.&.*.=.-.M ;.>.,.'.).!.~.{.].^.r /.(._.:.<.[.}.|.1.2.3.                    ",
"                4.5.6.7.8.9.0.a.b.c.d.e.f.g.h.i.j.k.l.m.n.o.t p.q.r.s.t.u.v.w.                  ",
"              x.y.z.A.B.-.C.a.b.D.E.F.G.H.I.J.^.K.l.r L.M.N.:.o.t O.P.Q.R...S.T.                ",
"            U.V.z.W.X.-.Y.Z.`.D.E. +R .+++@+#+$+%+&+*+Z =+-+;+>+:.,+'+)+Q.!+~+{+]+              ",
"          ^+/+(+_+X.-.C.Z.`.:+P <+[+.+S }+|+j.k.1+2+3+4+5+N.q.6+'+>+,+'+7+s.8+9+0+a+            ",
"          b+c+7.B.-.C.d+`.:+P <+e+f+g+{.h+i+j+l.r L.k+l+<.Y ;+m+6+'+>+n+o+r.p+q+r+s+            ",
"        t+u+v+B.-.w+Z.`.O P Q o x+g+s.].y+z+A+&+B+C+D+E+/.Y F+q.w m+'+>+,+q.&+f.G+H+I+          ",
"      J+K+L+W.M+C.Z.`.O P N+).x+O+h.].$+z+k.[.P+Q+4+R+<.N.S+T+Y q.;+m+'+>+,+U+V+I.W+X+Y+        ",
"      Z+`+ @M+Y.Z.`.:+P <+o x+O+.@].+@@@#@r $@%@&@*@E+=@<.-@S+T+Y q.w ;@'+:.>+M.J.>@,@'@        ",
"      )@!@~@{@Z.`.O P ]@^@/@H.S (@_@#+:@<+*+r L.<@l+[@E+=@-+<.}@|@S+1@2@;+3@,+1@1+4@5@6@        ",
"    7@8@9@0@a@b.b@Q R g..@@+#+j.j.j.j.c@x+5+d@=@e@f@T+g@5+F+q.6+_.(.h@i@j@k@l@:.m@n@o@p@q@      ",
"    r@s@t@u@v@b@w@0.M W.X.8.x@y@^@l.K.z@A@<+B@O D.O #@7+|@h._@C@,.d.d.'.e.r h@,+D@l+E@F@G@      ",
"    H@I@O `.D.e.J@K@L@M@N@W.O@P@K@`.&+Q@R@S@T@0.M y@U@V@=@W@K@X@Y@Z@Y@`.W.K@I.`@'+;+X  #.#      ",
"  +#@###$#%#A@f.X@&#p+^.*#k.A+=#Y@c@l.-#;#-@<.<.=@D@j.K@i.>#L@<.,+,+_.k@,#'#)#t p.!#~#{#]#+#    ",
"  + ^#/# +A@e.}.(#_#:#@+:#j.$+<#s.[#k.}#]@|#L.3+r.Z 3+1#O+2#3#4#5#s <.6#p.7#)#q.v _.8#9#0#+     ",
"  @ p@a#p n f.{.X@_#b#^.$+k.c#d#.@Q@e#&#P [@L.f#r.<@B+R@g+2#g#T+h#<.N.i#V j#L@;+v _.k#l#' @     ",
"  # ) 7 i+m#p+|+n#_#o#T 7#1+&+p#|+q#&+c@b@5#*+L.L.Z B+R@O+2#7.6+h#<.|@}@h@r#s#q.t#u#k#v#w##     ",
"  $ x#6 %@#@h.y#W@z#R &+<#A#Q+B#C#D#E#1#c.F#A#*+%@Z A#G#H.H#I#J#}@-@K#1@<.L#M#(.:.u#8#N#O#$     ",
"  $ O#P#K#J.].k.g#Q@Q#R#S#T#X@L@L@i+U#V#W#F#*+%@B#Z A#-#H.>#)#X#X@Y#V@Z#`# $*+(.>+_..$+$O#$     ",
"  @$#$$$8#&+#+$@%$&$*$]._@y#=$A+7+s 4+k.n@Z -$;$3+>$Z T r.,${@*+].^.'$c#A#2@.$'+,+)$!$~$#$@$    ",
"  {$]$^$u i#J#/$($_$R+7+5+<.N.-@R+D+D+E+7+:$Z C+3+C+>$3+E#S#8.Z A#:$<$-@;+w w >+>+;+[$}$|${$    ",
"  1$2$3$k#~#4$5$#+6$-+5#R+s S+e@|@5#=+7$4$&+%@8$l+[@U#A#<#g.(@1+c#[.B+7+T+o.:.9$0$-+s a$b$1$    ",
"  c$d$e$m+:.>+4$4$6$y+>$T+Y r Q.j.U#[@^@8$&+f$D+g$}+g+k.1+A+h$F.O+i$A#2+*#o#S+;@5+Z R+j$k$c$    ",
"    l$m$n$|@p.v '.N  +`.|@f$o$p$q$J#r$/@5+O+[.7+`.g$s$%#[.t$M@C.8.q$n@T@W#W#<+-@u$v$w$x$l$      ",
"    y$z$A$:$m+`@G.O+K. +N.A#B$5+6$T C$).D$O+E$=+F$n@i$G$[.!.0.H$I$#@2+a@@+@+^@r.J$K$L$M$$       ",
"    N$O$P$o#-+(.T+T b#%@m+0$i$I.J.D+<.[.s r 4$U#G$Q$f.T n@j+o P G.7#L.o#h.h.r#%+|+%+R$S$T$      ",
"      U$V$W$A#m+(.X$Y$t ;+F+!$'+6+K#=@S+-+}@<.<$A#F+=@Z$A#r r $@`$*$Q+7+=+>$7#@+s. %.%+%        ",
"      @%#%$%j.5#:.>+O.m+m+;+Y T+N.N.|@<.<.=@=@<.N.-+|#=+<@Q+A#p$%@3+r.A#%%g$&%H.*%=%-%;%        ",
"        >%,%'%)%/.,+:.>+!$m+;+q.F+e@S+S+N.N.|@-@-@N.N.6#5+=+7+7+!%E#*+o#j#@+#@o ~%{%]%          ",
"        ^%/%(%_%*+:%X :.l@!$m+w q.F+Y e@T+T+S+S+S+T+T+Y T+|@6#<.g@4$&+j#&%f+ +<%[%}%|%          ",
"          1%2%3%b#4%o+,+:.>+'+;@m+;+q.f@F+Y Y Y Y Y F+f@q.w w q.n.%@T &%f+ +5%6%7%8%            ",
"            9%0%a%j+U#o+p.o.:.l@!$;@m+w ;+;+q.q.q.;+;+w m+m+O.Y 4$k.@+f+<+H$b%c%d%              ",
"              e%f%g%A+=+o+p.t :.>+'+!$;@;@;@m+m+m+;@;@;@!$l@h%5+i%Q.#@ +'.j%k%l%                ",
"              m%s@n%o%p%D+w p.p.,+:.:.>+>+l@'+'+'+l@>+>+:.>+|@%@q%H.r%e.s%t%u%v%                ",
"                w%x%y%z%A%4$T+X _.p.t ,+,+:.o.o.o.:.,+,+,+q.4$$+O+R B%C%D%E%F%                  ",
"                    G%H%I%J%K%-@;@p.(._._.u#p.p.p.u#_._.O.5#L%h.M%N%O%P%Q%                      ",
"                      R%S%T%U%V%W%O.t k#k#(.(.(.(.(.k#X%-+Y%Z%`% &.&+&@&                        ",
"                        #&$&#$%&&&*&=&-&N#;&>&,&>&'&)&!&~&{&b U%s@]&^&                          ",
"                            /&(&_&:&<&[&}&|&1&2&1&3&4&5&6&7&8&9&^&                              ",
"                                  0&a&b&c&d&e&f&; g&h&i&j&k&                                    ",
"                                                                                                ",
"                                                                                                ",
"                                                                                                "};
